<svg width="173" height="26" viewBox="0 0 173 26" fill="none" xmlns="http://www.w3.org/2000/svg">
<path d="M16.2165 4.83875V23.259C16.2165 23.3458 16.1442 23.4181 16.0575 23.4181H13.3103C13.2236 23.4181 13.1513 23.3458 13.1513 23.259V18.1551C13.1513 18.0684 13.079 17.9961 12.9922 17.9961H10.968C10.8813 17.9961 10.809 18.0684 10.809 18.1551V23.259C10.809 23.3458 10.7367 23.4181 10.6499 23.4181H7.9028C7.81605 23.4181 7.74376 23.3458 7.74376 23.259V14.367C7.74376 14.2802 7.67146 14.2079 7.58471 14.2079H4.53394C4.38936 14.2079 4.31706 14.02 4.41827 13.9043L10.4475 9.1185C10.5776 9.06067 10.6933 9.1185 10.6933 9.23417L10.809 14.7863C10.809 14.873 10.8813 14.9453 10.968 14.9453H13.0067C13.0934 14.9453 13.1657 14.873 13.1657 14.7863V7.00754C13.1657 7.00754 13.1657 6.9208 13.2091 6.89188L15.9562 4.70863C16.0575 4.63634 16.202 4.70863 16.202 4.8243L16.2165 4.83875Z" fill="#CBC9C9"/>
<path d="M17.7497 4.70863C17.6485 4.63634 17.5039 4.70863 17.5039 4.8243V23.2446C17.5039 23.3313 17.5762 23.4036 17.9666 23.4036H25.1959C25.1959 23.4036 25.2682 23.3892 25.2971 23.3602L26.4538 22.2614C26.4538 22.2614 26.4972 22.1891 26.4972 22.1457V16.9117C26.4972 16.9117 26.4827 16.8394 26.4538 16.8105L25.7598 16.2611C25.7598 16.2611 25.7019 16.1165 25.7598 16.0442L26.4682 15.3791L26.4972 15.3502L26.4682 14.3381C26.4682 14.2513 26.5405 14.179 26.6273 14.179H29.0563C29.2009 14.179 29.2732 13.9911 29.1576 13.9043L17.7497 4.70863ZM23.3452 20.5263H20.7137C20.627 20.5263 20.5547 20.4541 20.5547 20.3673V18.1262C20.5547 18.0395 20.627 17.9672 20.7137 17.9672H23.3452C23.4319 17.9672 23.5042 18.0395 23.5042 18.1262V20.3673C23.5042 20.4541 23.4319 20.5263 23.3452 20.5263ZM23.4319 13.2826C23.4319 13.2826 23.4898 13.3549 23.4898 13.4127V14.7718C23.4898 14.8586 23.4175 14.9309 23.3307 14.9309H20.6993C20.6125 14.9309 20.5402 14.8586 20.5402 14.7718V11.374C20.5402 11.2439 20.6848 11.1716 20.786 11.2584" fill="#CBC9C9"/>
<path d="M16.2887 0.920055L7.38217 8.04815C7.28096 8.12044 7.13637 8.04815 7.13637 7.93248V7.8891C7.12191 7.38305 6.89057 7.35414 6.6014 7.35414H6.44236C6.1821 7.35414 5.96522 7.57101 5.96522 7.83127V9.10363C5.96522 9.10363 5.95077 9.19038 5.90739 9.21929L0.658914 13.5569C0.543245 13.6436 0.615537 13.8316 0.760123 13.8316H3.00121C3.00121 13.8316 3.0735 13.8316 3.08796 13.8027L16.708 2.90089C16.7947 2.84305 16.9104 2.84305 16.9971 2.90089L30.5593 13.8027C30.5593 13.8027 30.6171 13.8316 30.6461 13.8316H32.9594C33.104 13.8316 33.1763 13.6436 33.0606 13.5569L17.0116 0.60197C16.9248 0.544135 16.8092 0.544135 16.7224 0.60197L16.3031 0.920055" fill="#CBC9C9"/>
<path d="M7.97572 6.12522C7.97572 6.12522 7.84559 6.09631 7.80221 6.05293C7.12266 5.37338 6.00935 5.37338 5.32979 6.05293C5.21412 6.1686 5.02616 6.15414 4.93941 6.00956C4.86712 5.90835 4.89604 5.76376 4.98279 5.677C5.85031 4.80949 7.26725 4.80949 8.14922 5.677C8.25043 5.77821 8.26489 5.93726 8.17814 6.03847C8.12031 6.0963 8.06247 6.12522 7.99018 6.12522H7.97572Z" fill="#CBC9C9"/>
<path d="M7.29571 6.81944C7.29571 6.81944 7.16558 6.79052 7.10774 6.74715C7.06437 6.70377 7.00653 6.64594 6.9487 6.61702C6.61615 6.44352 6.25469 6.50136 6.00889 6.7327C5.92214 6.81945 5.79201 6.84836 5.6908 6.77607C5.54621 6.68932 5.53176 6.48689 5.64743 6.38568C5.89322 6.13989 6.21131 6.00977 6.55832 6.00977C6.90533 6.00977 7.22341 6.13989 7.46921 6.38568C7.57042 6.48689 7.57042 6.64594 7.46921 6.74715C7.42583 6.79052 7.35354 6.81944 7.29571 6.81944Z" fill="#CBC9C9"/>
<path d="M8.6698 5.43138C8.6698 5.43138 8.53967 5.40246 8.49629 5.35908C7.42636 4.3036 5.70578 4.28914 4.63584 5.35908C4.54909 5.44583 4.41896 5.46029 4.31775 5.40245C4.17317 5.3157 4.15871 5.12775 4.27438 5.01208C4.88164 4.40482 5.69132 4.07227 6.55884 4.07227C7.42636 4.07227 8.23604 4.40482 8.8433 5.01208C8.94451 5.11329 8.94451 5.27233 8.8433 5.37354C8.79992 5.41692 8.72763 5.44584 8.6698 5.44584V5.43138Z" fill="#CBC9C9"/>
<path d="M35.8939 10.2279V8.79363H40.808V10.2279L39.5367 10.4724V13.8952H44.3774V10.4724L43.1061 10.2279V8.79363H44.3774H46.7489H48.0202V10.2279L46.7489 10.4724V18.9885L48.0202 19.233V20.6592H43.1061V19.233L44.3774 18.9885V15.7288H39.5367V18.9885L40.808 19.233V20.6592H35.8939V19.233L37.157 18.9885V10.4724L35.8939 10.2279ZM49.0063 16.1689C49.0063 14.8541 49.373 13.7784 50.1064 12.9417C50.8453 12.0996 51.864 11.6785 53.1625 11.6785C54.4664 11.6785 55.4851 12.0969 56.2185 12.9335C56.9574 13.7702 57.3268 14.8486 57.3268 16.1689V16.34C57.3268 17.6656 56.9574 18.7468 56.2185 19.5835C55.4851 20.4147 54.4718 20.8303 53.1788 20.8303C51.8694 20.8303 50.8453 20.4147 50.1064 19.5835C49.373 18.7468 49.0063 17.6656 49.0063 16.34V16.1689ZM51.3859 16.34C51.3859 17.1441 51.5272 17.7906 51.8097 18.2796C52.0922 18.7631 52.5486 19.0048 53.1788 19.0048C53.7927 19.0048 54.2409 18.7604 54.5234 18.2714C54.8114 17.7824 54.9553 17.1386 54.9553 16.34V16.1689C54.9553 15.3865 54.8114 14.7481 54.5234 14.2537C54.2355 13.7593 53.7818 13.5121 53.1625 13.5121C52.5431 13.5121 52.0922 13.7593 51.8097 14.2537C51.5272 14.7481 51.3859 15.3865 51.3859 16.1689V16.34ZM58.0847 13.2758V11.8415H61.5645L61.6623 13.0069C61.9448 12.5831 62.298 12.2571 62.7217 12.0289C63.1509 11.7953 63.6453 11.6785 64.2049 11.6785C64.77 11.6785 65.2535 11.8035 65.6555 12.0534C66.0576 12.3033 66.3618 12.6809 66.5683 13.1862C66.8399 12.7135 67.1931 12.3441 67.6277 12.0778C68.0623 11.8116 68.573 11.6785 69.1598 11.6785C70.029 11.6785 70.7136 11.9801 71.2134 12.5831C71.7187 13.1807 71.9713 14.0935 71.9713 15.3213V18.9885L73.1204 19.233V20.6592H68.5649V19.233L69.5917 18.9885V15.3132C69.5917 14.6449 69.483 14.1804 69.2657 13.9196C69.0484 13.6588 68.7251 13.5284 68.2959 13.5284C67.9591 13.5284 67.6657 13.6045 67.4158 13.7566C67.1713 13.9033 66.9757 14.1098 66.829 14.376C66.829 14.4792 66.8318 14.5689 66.8372 14.6449C66.8426 14.7155 66.8453 14.7889 66.8453 14.8649V18.9885L67.807 19.233V20.6592H63.5122V19.233L64.4739 18.9885V15.3132C64.4739 14.6612 64.3652 14.2021 64.1479 13.9359C63.9306 13.6643 63.6046 13.5284 63.17 13.5284C62.8494 13.5284 62.5669 13.5909 62.3224 13.7159C62.0834 13.8354 61.8851 14.0065 61.7275 14.2293V18.9885L62.7543 19.233V20.6592H58.207V19.233L59.356 18.9885V13.5203L58.0847 13.2758ZM78.0345 20.8303C76.7632 20.8303 75.7472 20.4228 74.9866 19.6079C74.226 18.793 73.8457 17.758 73.8457 16.503V16.177C73.8457 14.8677 74.2043 13.7892 74.9214 12.9417C75.644 12.0941 76.6111 11.6731 77.8226 11.6785C79.0124 11.6785 79.936 12.0371 80.5934 12.7542C81.2508 13.4714 81.5795 14.4412 81.5795 15.6636V16.9593H76.315L76.2987 17.0082C76.3421 17.5896 76.535 18.0677 76.8773 18.4425C77.225 18.8174 77.6949 19.0048 78.2871 19.0048C78.8141 19.0048 79.2515 18.9532 79.5992 18.85C79.9469 18.7414 80.3272 18.5729 80.7401 18.3447L81.3839 19.8116C81.0199 20.0996 80.5472 20.3414 79.9659 20.5369C79.39 20.7325 78.7462 20.8303 78.0345 20.8303ZM77.8226 13.5121C77.3825 13.5121 77.0348 13.6806 76.7795 14.0174C76.5241 14.3542 76.3666 14.797 76.3068 15.3458L76.3313 15.3865H79.2488V15.1746C79.2488 14.6694 79.1292 14.2673 78.8902 13.9685C78.6566 13.6643 78.3007 13.5121 77.8226 13.5121ZM87.9279 8.79363C89.3241 8.79363 90.4134 9.06528 91.1958 9.60857C91.9781 10.1519 92.3693 10.9641 92.3693 12.0452C92.3693 12.594 92.2226 13.0857 91.9292 13.5203C91.6413 13.9495 91.2202 14.2728 90.6661 14.4901C91.3778 14.6422 91.9102 14.9682 92.2634 15.468C92.6219 15.9678 92.8012 16.5464 92.8012 17.2038C92.8012 18.3393 92.4264 19.2004 91.6766 19.7872C90.9269 20.3685 89.8647 20.6592 88.4902 20.6592H82.6552V19.233L83.9184 18.9885V10.4724L82.6552 10.2279V8.79363H83.9184H87.9279ZM86.298 15.411V18.8337H88.4902C89.1204 18.8337 89.6012 18.6979 89.9326 18.4262C90.264 18.1492 90.4297 17.7417 90.4297 17.2038C90.4297 16.6225 90.2885 16.1797 90.006 15.8755C89.7235 15.5658 89.278 15.411 88.6695 15.411H86.298ZM86.298 13.7648H88.0094C88.645 13.7648 89.134 13.6344 89.4763 13.3736C89.8185 13.1128 89.9897 12.7325 89.9897 12.2327C89.9897 11.684 89.8158 11.2792 89.4681 11.0184C89.1258 10.7576 88.6124 10.6273 87.9279 10.6273H86.298V13.7648ZM99.9157 19.5427C99.6332 19.9556 99.2827 20.2734 98.8644 20.4962C98.4515 20.7189 97.9788 20.8303 97.4464 20.8303C96.5174 20.8303 95.7893 20.5342 95.2624 19.942C94.7354 19.3444 94.4719 18.4181 94.4719 17.1631V13.5203L93.5021 13.2758V11.8415H94.4719H96.8515V17.1794C96.8515 17.8205 96.9574 18.2823 97.1693 18.5648C97.3866 18.8419 97.7072 18.9804 98.1309 18.9804C98.5058 18.9804 98.8291 18.9206 99.1007 18.8011C99.3778 18.6762 99.6033 18.4996 99.7771 18.2714V13.5203L98.734 13.2758V11.8415H99.7771H102.157V18.9885L103.224 19.233V20.6592H100.071L99.9157 19.5427ZM104.088 19.233L105.237 18.9885V13.5203L103.966 13.2758V11.8415H107.617V18.9885L108.758 19.233V20.6592H104.088V19.233ZM107.617 9.73082H105.237V7.94609H107.617V9.73082ZM109.287 9.38039V7.94609H112.938V18.9885L114.087 19.233V20.6592H109.41V19.233L110.559 18.9885V9.62487L109.287 9.38039ZM120.607 19.5835C120.33 19.9909 120.001 20.3006 119.621 20.5125C119.246 20.7244 118.817 20.8303 118.333 20.8303C117.247 20.8303 116.402 20.4337 115.799 19.6405C115.201 18.8473 114.902 17.7987 114.902 16.4948V16.3237C114.902 14.9329 115.204 13.811 115.807 12.958C116.41 12.105 117.258 11.6785 118.35 11.6785C118.79 11.6785 119.186 11.7763 119.539 11.9719C119.893 12.1621 120.202 12.4337 120.468 12.7868V9.62487L119.197 9.38039V7.94609H120.468H122.848V18.9885L123.989 19.233V20.6592H120.786L120.607 19.5835ZM117.282 16.4948C117.282 17.2663 117.41 17.8748 117.665 18.3203C117.926 18.7604 118.35 18.9804 118.936 18.9804C119.284 18.9804 119.586 18.9098 119.841 18.7685C120.096 18.6273 120.306 18.4235 120.468 18.1573V14.4167C120.306 14.1342 120.096 13.9169 119.841 13.7648C119.591 13.6072 119.295 13.5284 118.953 13.5284C118.371 13.5284 117.948 13.7865 117.681 14.3026C117.415 14.8188 117.282 15.4925 117.282 16.3237V16.4948ZM128.968 20.8303C127.697 20.8303 126.681 20.4228 125.92 19.6079C125.16 18.793 124.78 17.758 124.78 16.503V16.177C124.78 14.8677 125.138 13.7892 125.855 12.9417C126.578 12.0941 127.545 11.6731 128.756 11.6785C129.946 11.6785 130.87 12.0371 131.527 12.7542C132.185 13.4714 132.513 14.4412 132.513 15.6636V16.9593H127.249L127.233 17.0082C127.276 17.5896 127.469 18.0677 127.811 18.4425C128.159 18.8174 128.629 19.0048 129.221 19.0048C129.748 19.0048 130.185 18.9532 130.533 18.85C130.881 18.7414 131.261 18.5729 131.674 18.3447L132.318 19.8116C131.954 20.0996 131.481 20.3414 130.9 20.5369C130.324 20.7325 129.68 20.8303 128.968 20.8303ZM128.756 13.5121C128.316 13.5121 127.969 13.6806 127.713 14.0174C127.458 14.3542 127.3 14.797 127.241 15.3458L127.265 15.3865H130.183V15.1746C130.183 14.6694 130.063 14.2673 129.824 13.9685C129.59 13.6643 129.235 13.5121 128.756 13.5121ZM133.825 19.233L134.966 18.9885V13.5203L133.703 13.2758V11.8415H137.183L137.289 13.1291C137.495 12.6728 137.762 12.3169 138.088 12.0615C138.413 11.8062 138.791 11.6785 139.22 11.6785C139.345 11.6785 139.476 11.6894 139.611 11.7111C139.753 11.7274 139.87 11.7492 139.962 11.7763L139.709 13.9441L138.731 13.9196C138.384 13.9196 138.096 13.9875 137.867 14.1233C137.639 14.2592 137.465 14.452 137.346 14.702V18.9885L138.487 19.233V20.6592H133.825V19.233ZM142.162 20.6592H139.791V18.5729H142.162V20.6592ZM149.122 20.6592C149.057 20.5125 149 20.3631 148.951 20.211C148.902 20.0534 148.864 19.8959 148.837 19.7383C148.554 20.0643 148.209 20.3278 147.802 20.5288C147.4 20.7298 146.938 20.8303 146.416 20.8303C145.552 20.8303 144.865 20.5967 144.354 20.1295C143.849 19.6568 143.597 19.0157 143.597 18.2062C143.597 17.3804 143.928 16.742 144.591 16.2911C145.254 15.8402 146.226 15.6147 147.508 15.6147H148.723V14.7509C148.723 14.3271 148.6 13.9984 148.356 13.7648C148.111 13.5312 147.75 13.4144 147.272 13.4144C147 13.4144 146.758 13.4469 146.547 13.5121C146.335 13.5719 146.164 13.6453 146.033 13.7322L145.878 14.6775H144.085L144.094 12.7217C144.528 12.4283 145.025 12.1811 145.585 11.9801C146.15 11.779 146.764 11.6785 147.427 11.6785C148.519 11.6785 149.404 11.9475 150.083 12.4853C150.768 13.0177 151.11 13.7784 151.11 14.7672V18.4099C151.11 18.5458 151.11 18.6734 151.11 18.793C151.116 18.9125 151.127 19.0266 151.143 19.1352L151.868 19.233V20.6592H149.122ZM147.06 19.07C147.419 19.07 147.745 18.994 148.038 18.8419C148.331 18.6843 148.56 18.4887 148.723 18.2551V16.9104H147.508C147.003 16.9104 146.62 17.03 146.359 17.269C146.098 17.5026 145.968 17.7852 145.968 18.1166C145.968 18.4154 146.063 18.649 146.253 18.8174C146.449 18.9858 146.718 19.07 147.06 19.07ZM152.504 13.2758V11.8415H155.959L156.073 12.8683C156.334 12.488 156.646 12.1947 157.01 11.9882C157.374 11.7818 157.798 11.6785 158.282 11.6785C159.374 11.6785 160.221 12.105 160.824 12.958C161.427 13.811 161.729 14.9329 161.729 16.3237V16.4948C161.729 17.7987 161.427 18.8473 160.824 19.6405C160.221 20.4337 159.379 20.8303 158.298 20.8303C157.836 20.8303 157.426 20.7461 157.068 20.5777C156.709 20.4038 156.402 20.1512 156.147 19.8198V22.3706L157.296 22.615V24.0493H152.626V22.615L153.775 22.3706V13.5203L152.504 13.2758ZM159.349 16.3237C159.349 15.4925 159.211 14.8188 158.934 14.3026C158.657 13.7865 158.233 13.5284 157.662 13.5284C157.304 13.5284 156.997 13.6018 156.742 13.7485C156.492 13.8952 156.293 14.1043 156.147 14.376V18.2388C156.293 18.4887 156.492 18.6789 156.742 18.8093C156.997 18.9397 157.309 19.0048 157.679 19.0048C158.255 19.0048 158.676 18.7794 158.942 18.3284C159.214 17.8775 159.349 17.2663 159.349 16.4948V16.3237ZM162.609 13.2758V11.8415H166.064L166.179 12.8683C166.439 12.488 166.752 12.1947 167.116 11.9882C167.48 11.7818 167.904 11.6785 168.387 11.6785C169.479 11.6785 170.327 12.105 170.93 12.958C171.533 13.811 171.834 14.9329 171.834 16.3237V16.4948C171.834 17.7987 171.533 18.8473 170.93 19.6405C170.327 20.4337 169.485 20.8303 168.403 20.8303C167.942 20.8303 167.531 20.7461 167.173 20.5777C166.814 20.4038 166.507 20.1512 166.252 19.8198V22.3706L167.401 22.615V24.0493H162.731V22.615L163.88 22.3706V13.5203L162.609 13.2758ZM169.455 16.3237C169.455 15.4925 169.316 14.8188 169.039 14.3026C168.762 13.7865 168.338 13.5284 167.768 13.5284C167.409 13.5284 167.102 13.6018 166.847 13.7485C166.597 13.8952 166.399 14.1043 166.252 14.376V18.2388C166.399 18.4887 166.597 18.6789 166.847 18.8093C167.102 18.9397 167.415 19.0048 167.784 19.0048C168.36 19.0048 168.781 18.7794 169.047 18.3284C169.319 17.8775 169.455 17.2663 169.455 16.4948V16.3237Z" fill="#CBC9C9"/>
</svg>
