<svg width="1236" height="17" viewBox="0 0 1236 17" fill="none" xmlns="http://www.w3.org/2000/svg">
<g clip-path="url(#clip0_6553_7594)">
<path fill-rule="evenodd" clip-rule="evenodd" d="M664.388 0.768225C664.798 0.34679 665.464 0.34679 665.889 0.768225C666.299 1.18966 666.299 1.87268 665.889 2.30864L652.423 16.1288C652.012 16.5502 651.332 16.5502 650.922 16.1288L638.206 3.07885L625.491 16.1288C625.08 16.5502 624.414 16.5502 623.99 16.1288L611.274 3.07885L598.558 16.1288C598.148 16.5502 597.482 16.5502 597.058 16.1288L584.342 3.07885L571.626 16.1288C571.414 16.3468 571.145 16.4485 570.876 16.4485H469.562C468.981 16.4485 468.5 15.969 468.5 15.3586C468.5 14.7482 468.967 14.2687 469.562 14.2687H570.423L583.577 0.768225C583.988 0.34679 584.653 0.34679 585.078 0.768225L597.794 13.8182L610.524 0.768225C610.934 0.34679 611.6 0.34679 612.025 0.768225L624.74 13.8182L637.456 0.768225C637.866 0.34679 638.532 0.34679 638.957 0.768225L651.672 13.8182L664.388 0.768225Z" fill="#CEC4AE"/>
<path fill-rule="evenodd" clip-rule="evenodd" d="M665.889 14.5886C666.299 15.01 666.299 15.6931 665.889 16.129C665.478 16.565 664.813 16.5505 664.388 16.129L651.672 3.07907L638.957 16.129C638.546 16.5505 637.88 16.5505 637.456 16.129L624.74 3.07907L612.025 16.129C611.614 16.5505 610.948 16.5505 610.524 16.129L597.808 3.07907L585.092 16.129C584.682 16.5505 584.002 16.5505 583.591 16.129L570.437 2.62857H469.562C468.981 2.62857 468.5 2.149 468.5 1.53865C468.5 0.928295 468.967 0.44873 469.562 0.44873H570.862C571.131 0.44873 571.4 0.550456 571.612 0.76844L584.328 13.8184L597.043 0.76844C597.454 0.347005 598.12 0.347005 598.544 0.76844L611.26 13.8184L623.99 0.76844C624.4 0.347005 625.066 0.347005 625.491 0.76844L638.206 13.8184L650.922 0.76844C651.332 0.347005 651.998 0.347005 652.423 0.76844L665.889 14.5886Z" fill="#CEC4AE"/>
<path fill-rule="evenodd" clip-rule="evenodd" d="M665.138 2.62857C664.558 2.62857 664.076 2.149 664.076 1.53865C664.076 0.928295 664.543 0.44873 665.138 0.44873H766.438C767.019 0.44873 767.5 0.928295 767.5 1.53865C767.5 2.149 767.033 2.62857 766.438 2.62857H665.138Z" fill="#CEC4AE"/>
<path fill-rule="evenodd" clip-rule="evenodd" d="M665.138 16.4489C664.558 16.4489 664.076 15.9693 664.076 15.359C664.076 14.7486 664.543 14.269 665.138 14.269H766.438C767.019 14.269 767.5 14.7486 767.5 15.359C767.5 15.9693 767.033 16.4489 766.438 16.4489H665.138Z" fill="#CEC4AE"/>
</g>
<path d="M436.832 9.44873C437.384 9.44873 437.832 9.00102 437.832 8.44873C437.832 7.89645 437.384 7.44873 436.832 7.44873V9.44873ZM436.832 7.44873L-0.000671387 7.44873V9.44873L436.832 9.44873V7.44873Z" fill="url(#paint0_linear_6553_7594)"/>
<path d="M799.168 9.44873C798.616 9.44873 798.168 9.00102 798.168 8.44873C798.168 7.89645 798.616 7.44873 799.168 7.44873V9.44873ZM799.168 7.44873L1236 7.44873V9.44873L799.168 9.44873V7.44873Z" fill="url(#paint1_linear_6553_7594)"/>
<defs>
<linearGradient id="paint0_linear_6553_7594" x1="437.014" y1="8.46158" x2="61.5392" y2="8.45126" gradientUnits="userSpaceOnUse">
<stop stop-color="#CEC4AE"/>
<stop offset="1" stop-color="#CEC4AE" stop-opacity="0"/>
</linearGradient>
<linearGradient id="paint1_linear_6553_7594" x1="798.986" y1="8.46158" x2="1174.46" y2="8.45126" gradientUnits="userSpaceOnUse">
<stop stop-color="#CEC4AE"/>
<stop offset="1" stop-color="#CEC4AE" stop-opacity="0"/>
</linearGradient>
<clipPath id="clip0_6553_7594">
<rect width="299" height="16" fill="white" transform="translate(468.5 0.44873)"/>
</clipPath>
</defs>
</svg>
